<svg version="1.1" viewBox="0 0 77.952756 77.952756" xmlns="http://www.w3.org/2000/svg"><g transform="translate(0 -974.41)"><g transform="matrix(1.25 0 0 -1.25 -959.57 1121.7)"><g transform="translate(816.73 96.748)"><path d="m0 0-3.463 0.331c0.221 2.298-1.26 4.326-3.297 4.521-2.029 0.196-3.875-1.52-4.095-3.82l-3.461 0.333c0.404 4.209 3.955 7.327 7.886 6.95 3.948-0.377 6.832-4.107 6.43-8.315" fill="#505050"/></g><g transform="translate(820.83 86.867)"><path d="m0 0c0-12.312-9.797-22.297-21.881-22.297-12.085 0-21.882 9.985-21.882 22.297 8.835 0.256 9.797 0 21.882 0h21.881z" fill="#68696b"/></g><path d="m777.07 86.867h43.419v-4.921h-43.419v4.921z" fill="#fff"/><g transform="translate(778.09 85.867)"><path d="m0 0c0.514-11.28 9.674-20.297 20.859-20.297 11.184 0 20.344 9.017 20.858 20.297h-41.717zm20.859-22.297c-12.617 0-22.881 10.451-22.881 23.297v1h45.762v-1c0-12.846-10.265-23.297-22.881-23.297" fill="#505050"/></g><g transform="translate(779.74 96.648)"><path d="m0 0c-0.465 4.201 2.332 7.971 6.233 8.405 3.898 0.439 7.456-2.637 7.921-6.839l-3.457-0.382c-0.254 2.296-2.082 3.982-4.081 3.764-1.995-0.222-3.413-2.271-3.159-4.566l-3.457-0.382z" fill="#505050"/></g><g transform="translate(798.95 114.2)"><path d="m0 0c-15.271 0-27.694-12.423-27.694-27.693 0-15.271 12.423-27.694 27.694-27.694 15.27 0 27.693 12.423 27.693 27.694 0 15.27-12.423 27.693-27.693 27.693m0-57.887c-16.649 0-30.194 13.545-30.194 30.194 0 16.648 13.545 30.193 30.194 30.193 16.648 0 30.193-13.545 30.193-30.193 0-16.649-13.545-30.194-30.193-30.194" fill="#505050"/></g></g></g></svg>