<svg version="1.1" viewBox="0 0 77.952755 77.952756" xmlns="http://www.w3.org/2000/svg"><defs><clipPath id="clipPath214"><path d="m0 338h861v-338h-861v338z"/></clipPath></defs><g transform="translate(0 -974.41)"><g transform="matrix(1.25 0 0 -1.25 -45.213 1336.2)"><g clip-path="url(#clipPath214)"><g transform="translate(67.542 285.34)"><path d="m0 0c-15.27 0-27.693-12.424-27.693-27.693 0-15.272 12.423-27.694 27.693-27.694 15.271 0 27.693 12.422 27.693 27.694 0 15.269-12.422 27.693-27.693 27.693m0-57.887c-16.648 0-30.193 13.545-30.193 30.194 0 16.648 13.545 30.193 30.193 30.193s30.193-13.545 30.193-30.193c0-16.649-13.545-30.194-30.193-30.194" fill="#505050"/></g><g transform="translate(52.681 249.31)"><path d="m0 0c-0.37 0-0.744 0.014-1.123 0.043-2.326 0.176-5.145 1.019-6.076 2.853l2.997 1.258c0.136-0.265 1.292-0.965 3.354-1.123 1.13-0.084 4.965-0.146 7.085 2.672l2.726-1.693c-1.92-2.553-5.215-4.01-8.963-4.01" fill="#505050"/></g><g transform="translate(80.698 249.67)"><path d="m0 0c-0.92 0-1.867 0.107-2.82 0.328-2.134 0.494-4.621 1.715-5.201 3.656l2.98 0.832c0.084-0.281 1.051-1.132 2.943-1.57 1.03-0.238 4.586-0.824 6.994 1.668l2.267-2.047c-1.804-1.867-4.364-2.867-7.163-2.867" fill="#505050"/></g><g transform="translate(45.801 257.62)"><path d="M 0,0 -2.032,0.734 C -2.007,0.807 0.659,7.945 8.917,7.752 L 8.866,5.59 C 2.163,5.727 0.021,0.057 0,0" fill="#505050"/></g><g transform="translate(88.595 257.73)"><path d="m0 0c-3.889 6.34-9.369 4.979-9.602 4.916l-0.524 1.93c0.071 0.019 7.138 1.853 11.831-5.799l-1.705-1.047z" fill="#505050"/></g><g transform="translate(68.542 237.84)"><path d="m0 0c3.582 0 6.485-0.896 6.485-2s-2.903-2-6.485-2c-3.581 0-6.484 0.896-6.484 2s2.903 2 6.484 2" fill="#505050"/></g><g transform="translate(68.542 237.84)"><path d="m0 0c3.582 0 6.485-0.896 6.485-2s-2.903-2-6.485-2c-3.581 0-6.484 0.896-6.484 2s2.903 2 6.484 2z" fill="none" stroke="#505050" stroke-miterlimit="10"/></g></g></g></g></svg>