<svg version="1.1" viewBox="0 0 77.952756 77.952756" xmlns="http://www.w3.org/2000/svg"><g transform="translate(0 -974.41)"><g transform="matrix(1.25 0 0 -1.25 -45.703 1123.2)"><g transform="translate(67.543 115.56)"><path d="m0 0c-15.27 0-27.693-12.423-27.693-27.693 0-15.271 12.423-27.694 27.693-27.694 15.271 0 27.693 12.423 27.693 27.694 0 15.27-12.422 27.693-27.693 27.693m0-57.887c-16.648 0-30.193 13.545-30.193 30.194 0 16.648 13.545 30.193 30.193 30.193s30.193-13.545 30.193-30.193c0-16.649-13.545-30.194-30.193-30.194" fill="#505050"/></g><g transform="translate(78.027 68.261)"><path d="m0 0c-4.293 6.925-10.559 6.659-13.053 6.224-3.937-0.688-7.086-3.083-7.489-5.697l-3.983 0.518c0.648 4.194 5.056 7.815 10.719 8.805 6.97 1.214 13.435-1.785 17.302-8.026l-3.496-1.824z" fill="#505050"/></g><g transform="translate(87.981 99.373)"><path d="m0 0c-0.36 0.041-8.901 1.063-13.741 5.736l1.222 1.449c4.405-4.253 12.63-5.235 12.713-5.245l-0.194-1.94z" fill="#505050"/></g><g transform="translate(78.889 99.763)"><path d="m0 0c2.08 0 3.767-2.177 3.767-4.862 0-2.686-1.687-4.863-3.767-4.863s-3.766 2.177-3.766 4.863c0 2.685 1.686 4.862 3.766 4.862" fill="#505050"/></g><g transform="translate(54.722 99.763)"><path d="m0 0c2.08 0 3.767-2.177 3.767-4.862 0-2.686-1.687-4.863-3.767-4.863s-3.766 2.177-3.766 4.863c0 2.685 1.686 4.862 3.766 4.862" fill="#505050"/></g><g transform="translate(47.394 98.815)"><path d="M 0,0 -0.669,1.937 C 2.982,3.121 9.254,5.684 10.537,7.519 L 12.283,6.374 C 10.182,3.366 1.036,0.335 0,0" fill="#505050"/></g></g></g></svg>