<svg version="1.1" viewBox="0 0 77.952756 77.952756" xmlns="http://www.w3.org/2000/svg"><g transform="translate(0 -974.41)"><g transform="matrix(1.25 0 0 -1.25 -959.62 1333.9)"><g transform="translate(798.95 283.74)"><path d="m0 0c-15.271 0-27.693-12.424-27.693-27.693 0-15.272 12.422-27.694 27.693-27.694 15.27 0 27.693 12.422 27.693 27.694 0 15.269-12.423 27.693-27.693 27.693m0-57.887c-16.648 0-30.193 13.545-30.193 30.194 0 16.648 13.545 30.193 30.193 30.193s30.193-13.545 30.193-30.193c0-16.649-13.545-30.194-30.193-30.194" fill="#505050"/></g><g transform="translate(786.58 273.04)"><path d="m0 0c4.699 0 8.509-3.81 8.509-8.508 0-4.699-3.81-8.509-8.509-8.509-4.698 0-8.508 3.81-8.508 8.509 0 4.698 3.81 8.508 8.508 8.508" fill="#fff"/></g><g transform="translate(786.58 272.29)"><path d="m0 0c-4.278 0-7.759-3.48-7.759-7.758 0-4.277 3.481-7.758 7.759-7.758s7.758 3.481 7.758 7.758c0 4.278-3.48 7.758-7.758 7.758m0-17.016c-5.104 0-9.259 4.154-9.259 9.258 0 5.106 4.155 9.258 9.259 9.258s9.258-4.152 9.258-9.258c0-5.104-4.154-9.258-9.258-9.258" fill="#505050"/></g><g transform="translate(786.58 268.48)"><path d="m0 0c2.182 0 3.951-1.768 3.951-3.949 0-2.182-1.769-3.95-3.951-3.95-2.181 0-3.949 1.768-3.949 3.95 0 2.181 1.768 3.949 3.949 3.949" fill="#505050"/></g><g transform="translate(785.97 239.72)"><path d="m0 0h24.271" fill="#505050" stroke="#505050" stroke-miterlimit="10" stroke-width="3"/></g><g transform="translate(811.24 273.03)"><path d="m0 0c4.699 0 8.509-3.81 8.509-8.509 0-4.698-3.81-8.508-8.509-8.508-4.698 0-8.508 3.81-8.508 8.508 0 4.699 3.81 8.509 8.508 8.509" fill="#fff"/></g><g transform="translate(811.24 272.29)"><path d="m0 0c-4.278 0-7.759-3.48-7.759-7.76 0-4.277 3.481-7.756 7.759-7.756s7.758 3.479 7.758 7.756c0 4.28-3.48 7.76-7.758 7.76m0-17.016c-5.104 0-9.259 4.153-9.259 9.256 0 5.106 4.155 9.26 9.259 9.26s9.258-4.154 9.258-9.26c0-5.103-4.154-9.256-9.258-9.256" fill="#505050"/></g><g transform="translate(811.24 268.48)"><path d="m0 0c2.182 0 3.951-1.769 3.951-3.95 0-2.182-1.769-3.949-3.951-3.949-2.181 0-3.949 1.767-3.949 3.949 0 2.181 1.768 3.95 3.949 3.95" fill="#505050"/></g></g></g></svg>