<?xml version="1.0" encoding="UTF-8" standalone="no"?>
<!-- Created with Inkscape (http://www.inkscape.org/) -->

<svg
   xmlns:dc="http://purl.org/dc/elements/1.1/"
   xmlns:cc="http://creativecommons.org/ns#"
   xmlns:rdf="http://www.w3.org/1999/02/22-rdf-syntax-ns#"
   xmlns:svg="http://www.w3.org/2000/svg"
   xmlns="http://www.w3.org/2000/svg"
   xmlns:sodipodi="http://sodipodi.sourceforge.net/DTD/sodipodi-0.dtd"
   xmlns:inkscape="http://www.inkscape.org/namespaces/inkscape"
   viewBox="0 0 77.952756 77.952756"
   id="svg5834"
   version="1.1"
   inkscape:version="0.91 r13725"
   sodipodi:docname="AS_unhappy.svg">
  <defs
     id="defs5836" />
  <sodipodi:namedview
     id="base"
     pagecolor="#ffffff"
     bordercolor="#666666"
     borderopacity="1.0"
     inkscape:pageopacity="0.0"
     inkscape:pageshadow="2"
     inkscape:zoom="3.959798"
     inkscape:cx="86.433072"
     inkscape:cy="64.552902"
     inkscape:document-units="px"
     inkscape:current-layer="layer1"
     showgrid="false"
     inkscape:window-width="1366"
     inkscape:window-height="768"
     inkscape:window-x="0"
     inkscape:window-y="0"
     inkscape:window-maximized="0" />
  <metadata
     id="metadata5839">
    <rdf:RDF>
      <cc:Work
         rdf:about="">
        <dc:format>image/svg+xml</dc:format>
        <dc:type
           rdf:resource="http://purl.org/dc/dcmitype/StillImage" />
        <dc:title></dc:title>
      </cc:Work>
    </rdf:RDF>
  </metadata>
  <g
     inkscape:label="Layer 1"
     inkscape:groupmode="layer"
     id="layer1"
     transform="translate(0,-974.40945)">
    <g
       transform="matrix(1.25,0,0,-1.25,-45.702869,1123.2215)"
       id="g5799">
      <g
         transform="translate(67.543,115.5605)"
         id="g28">
        <path
           inkscape:connector-curvature="0"
           id="path30"
           style="fill:#505050;fill-opacity:1;fill-rule:nonzero;stroke:none"
           d="m 0,0 c -15.27,0 -27.693,-12.423 -27.693,-27.693 0,-15.271 12.423,-27.694 27.693,-27.694 15.271,0 27.693,12.423 27.693,27.694 C 27.693,-12.423 15.271,0 0,0 m 0,-57.887 c -16.648,0 -30.193,13.545 -30.193,30.194 C -30.193,-11.045 -16.648,2.5 0,2.5 16.648,2.5 30.193,-11.045 30.193,-27.693 30.193,-44.342 16.648,-57.887 0,-57.887" />
      </g>
      <g
         transform="translate(78.0273,68.2612)"
         id="g32">
        <path
           inkscape:connector-curvature="0"
           id="path34"
           style="fill:#505050;fill-opacity:1;fill-rule:nonzero;stroke:none"
           d="M 0,0 C -4.293,6.925 -10.559,6.659 -13.053,6.224 -16.99,5.536 -20.139,3.141 -20.542,0.527 l -3.983,0.518 c 0.648,4.194 5.056,7.815 10.719,8.805 6.97,1.214 13.435,-1.785 17.302,-8.026 L 0,0 Z" />
      </g>
      <g
         transform="translate(87.9814,99.373)"
         id="g36">
        <path
           inkscape:connector-curvature="0"
           id="path38"
           style="fill:#505050;fill-opacity:1;fill-rule:nonzero;stroke:none"
           d="m 0,0 c -0.36,0.041 -8.901,1.063 -13.741,5.736 l 1.222,1.449 C -8.114,2.932 0.111,1.95 0.194,1.94 L 0,0 Z" />
      </g>
      <g
         transform="translate(78.8887,99.7632)"
         id="g40">
        <path
           inkscape:connector-curvature="0"
           id="path42"
           style="fill:#505050;fill-opacity:1;fill-rule:nonzero;stroke:none"
           d="M 0,0 C 2.08,0 3.767,-2.177 3.767,-4.862 3.767,-7.548 2.08,-9.725 0,-9.725 c -2.08,0 -3.766,2.177 -3.766,4.863 C -3.766,-2.177 -2.08,0 0,0" />
      </g>
      <g
         transform="translate(54.7217,99.7632)"
         id="g44">
        <path
           inkscape:connector-curvature="0"
           id="path46"
           style="fill:#505050;fill-opacity:1;fill-rule:nonzero;stroke:none"
           d="M 0,0 C 2.08,0 3.767,-2.177 3.767,-4.862 3.767,-7.548 2.08,-9.725 0,-9.725 c -2.08,0 -3.766,2.177 -3.766,4.863 C -3.766,-2.177 -2.08,0 0,0" />
      </g>
      <g
         transform="translate(47.3945,98.8149)"
         id="g48">
        <path
           inkscape:connector-curvature="0"
           id="path50"
           style="fill:#505050;fill-opacity:1;fill-rule:nonzero;stroke:none"
           d="M 0,0 -0.669,1.937 C 2.982,3.121 9.254,5.684 10.537,7.519 L 12.283,6.374 C 10.182,3.366 1.036,0.335 0,0" />
      </g>
    </g>
  </g>
</svg>
