<?xml version="1.0" encoding="UTF-8" standalone="no"?>
<!-- Created with Inkscape (http://www.inkscape.org/) -->

<svg
   xmlns:dc="http://purl.org/dc/elements/1.1/"
   xmlns:cc="http://creativecommons.org/ns#"
   xmlns:rdf="http://www.w3.org/1999/02/22-rdf-syntax-ns#"
   xmlns:svg="http://www.w3.org/2000/svg"
   xmlns="http://www.w3.org/2000/svg"
   xmlns:sodipodi="http://sodipodi.sourceforge.net/DTD/sodipodi-0.dtd"
   xmlns:inkscape="http://www.inkscape.org/namespaces/inkscape"
   viewBox="0 0 77.952756 77.952756"
   id="svg5181"
   version="1.1"
   inkscape:version="0.91 r13725"
   sodipodi:docname="AS_wideawake.svg">
  <defs
     id="defs5183" />
  <sodipodi:namedview
     id="base"
     pagecolor="#ffffff"
     bordercolor="#666666"
     borderopacity="1.0"
     inkscape:pageopacity="0.0"
     inkscape:pageshadow="2"
     inkscape:zoom="2.8"
     inkscape:cx="114.03677"
     inkscape:cy="92.942125"
     inkscape:document-units="px"
     inkscape:current-layer="layer1"
     showgrid="false"
     inkscape:window-width="1366"
     inkscape:window-height="768"
     inkscape:window-x="0"
     inkscape:window-y="0"
     inkscape:window-maximized="0" />
  <metadata
     id="metadata5186">
    <rdf:RDF>
      <cc:Work
         rdf:about="">
        <dc:format>image/svg+xml</dc:format>
        <dc:type
           rdf:resource="http://purl.org/dc/dcmitype/StillImage" />
        <dc:title></dc:title>
      </cc:Work>
    </rdf:RDF>
  </metadata>
  <g
     inkscape:label="Layer 1"
     inkscape:groupmode="layer"
     id="layer1"
     transform="translate(0,-974.40945)">
    <g
       transform="matrix(1.25,0,0,-1.25,-959.61506,1333.8517)"
       id="g5138">
      <g
         transform="translate(798.9492,283.7422)"
         id="g138">
        <path
           inkscape:connector-curvature="0"
           id="path140"
           style="fill:#505050;fill-opacity:1;fill-rule:nonzero;stroke:none"
           d="m 0,0 c -15.271,0 -27.693,-12.424 -27.693,-27.693 0,-15.272 12.422,-27.694 27.693,-27.694 15.27,0 27.693,12.422 27.693,27.694 C 27.693,-12.424 15.27,0 0,0 m 0,-57.887 c -16.648,0 -30.193,13.545 -30.193,30.194 C -30.193,-11.045 -16.648,2.5 0,2.5 16.648,2.5 30.193,-11.045 30.193,-27.693 30.193,-44.342 16.648,-57.887 0,-57.887" />
      </g>
      <g
         transform="translate(786.5781,273.0352)"
         id="g142">
        <path
           inkscape:connector-curvature="0"
           id="path144"
           style="fill:#ffffff;fill-opacity:1;fill-rule:nonzero;stroke:none"
           d="m 0,0 c 4.699,0 8.509,-3.81 8.509,-8.508 0,-4.699 -3.81,-8.509 -8.509,-8.509 -4.698,0 -8.508,3.81 -8.508,8.509 C -8.508,-3.81 -4.698,0 0,0" />
      </g>
      <g
         transform="translate(786.5791,272.2852)"
         id="g146">
        <path
           inkscape:connector-curvature="0"
           id="path148"
           style="fill:#505050;fill-opacity:1;fill-rule:nonzero;stroke:none"
           d="m 0,0 c -4.278,0 -7.759,-3.48 -7.759,-7.758 0,-4.277 3.481,-7.758 7.759,-7.758 4.278,0 7.758,3.481 7.758,7.758 C 7.758,-3.48 4.278,0 0,0 m 0,-17.016 c -5.104,0 -9.259,4.154 -9.259,9.258 0,5.106 4.155,9.258 9.259,9.258 5.104,0 9.258,-4.152 9.258,-9.258 0,-5.104 -4.154,-9.258 -9.258,-9.258" />
      </g>
      <g
         transform="translate(786.5781,268.4766)"
         id="g150">
        <path
           inkscape:connector-curvature="0"
           id="path152"
           style="fill:#505050;fill-opacity:1;fill-rule:nonzero;stroke:none"
           d="m 0,0 c 2.182,0 3.951,-1.768 3.951,-3.949 0,-2.182 -1.769,-3.95 -3.951,-3.95 -2.181,0 -3.949,1.768 -3.949,3.95 C -3.949,-1.768 -2.181,0 0,0" />
      </g>
      <g
         transform="translate(785.9678,239.7197)"
         id="g154">
        <path
           inkscape:connector-curvature="0"
           id="path156"
           style="fill:#505050;fill-opacity:1;fill-rule:nonzero;stroke:#505050;stroke-width:3;stroke-linecap:butt;stroke-linejoin:miter;stroke-miterlimit:10;stroke-dasharray:none;stroke-opacity:1"
           d="M 0,0 24.271,0" />
      </g>
      <g
         transform="translate(811.2383,273.0342)"
         id="g158">
        <path
           inkscape:connector-curvature="0"
           id="path160"
           style="fill:#ffffff;fill-opacity:1;fill-rule:nonzero;stroke:none"
           d="m 0,0 c 4.699,0 8.509,-3.81 8.509,-8.509 0,-4.698 -3.81,-8.508 -8.509,-8.508 -4.698,0 -8.508,3.81 -8.508,8.508 C -8.508,-3.81 -4.698,0 0,0" />
      </g>
      <g
         transform="translate(811.2393,272.2852)"
         id="g162">
        <path
           inkscape:connector-curvature="0"
           id="path164"
           style="fill:#505050;fill-opacity:1;fill-rule:nonzero;stroke:none"
           d="m 0,0 c -4.278,0 -7.759,-3.48 -7.759,-7.76 0,-4.277 3.481,-7.756 7.759,-7.756 4.278,0 7.758,3.479 7.758,7.756 C 7.758,-3.48 4.278,0 0,0 m 0,-17.016 c -5.104,0 -9.259,4.153 -9.259,9.256 0,5.106 4.155,9.26 9.259,9.26 5.104,0 9.258,-4.154 9.258,-9.26 0,-5.103 -4.154,-9.256 -9.258,-9.256" />
      </g>
      <g
         transform="translate(811.2383,268.4756)"
         id="g166">
        <path
           inkscape:connector-curvature="0"
           id="path168"
           style="fill:#505050;fill-opacity:1;fill-rule:nonzero;stroke:none"
           d="m 0,0 c 2.182,0 3.951,-1.769 3.951,-3.95 0,-2.182 -1.769,-3.949 -3.951,-3.949 -2.181,0 -3.949,1.767 -3.949,3.949 C -3.949,-1.769 -2.181,0 0,0" />
      </g>
    </g>
  </g>
</svg>
